PathFileType	4	(X/Y/Z)	Walk4.trc
DataRate	CameraRate	NumFrames	NumMarkers	Units	OrigDataRate	OrigDataStartFrame	OrigNumFrames
200.000000	200.000000	4	59	mm	200.000000	480	559
Frame#	Times		LFHD		C7		CLAV		STRN		RBack		RASI		RACR1		RUA1		RElbow		RFA1		RWRU		RCAR		LACR1		LUA1		LFA1		LWRR		LCAR		RTH1		RTH3		RTH2		RLFC		LTH1		LTH3		LTH2		LTH4		LLFC		LTB1		LTB3		LTB4		LMT1		LToe		T10		RTH4		LMMAL		LTB2		LMT5		RFHD		RPSI		RWRR		RToe		LLMAL		LElbow		LPSI		RBHD		RTB1		LBHD		LWRU		LElbowM		RTB2		RTB4		RTB3		RMT1		LASI		RMMAL		RLMAL		RMT5		RCAL		LCAL		RElbowM
			X1	Y1	Z1	X2	Y2	Z2	X3	Y3	Z3	X4	Y4	Z4	X5	Y5	Z5	X6	Y6	Z6	X7	Y7	Z7	X8	Y8	Z8	X9	Y9	Z9	X10	Y10	Z10	X11	Y11	Z11	X12	Y12	Z12	X13	Y13	Z13	X14	Y14	Z14	X15	Y15	Z15	X16	Y16	Z16	X17	Y17	Z17	X18	Y18	Z18	X19	Y19	Z19	X20	Y20	Z20	X21	Y21	Z21	X22	Y22	Z22	X23	Y23	Z23	X24	Y24	Z24	X25	Y25	Z25	X26	Y26	Z26	X27	Y27	Z27	X28	Y28	Z28	X29	Y29	Z29	X30	Y30	Z30	X31	Y31	Z31	X32	Y32	Z32	X33	Y33	Z33	X34	Y34	Z34	X35	Y35	Z35	X36	Y36	Z36	X37	Y37	Z37	X38	Y38	Z38	X39	Y39	Z39	X40	Y40	Z40	X41	Y41	Z41	X42	Y42	Z42	X43	Y43	Z43	X44	Y44	Z44	X45	Y45	Z45	X46	Y46	Z46	X47	Y47	Z47	X48	Y48	Z48	X49	Y49	Z49	X50	Y50	Z50	X51	Y51	Z51	X52	Y52	Z52	X53	Y53	Z53	X54	Y54	Z54	X55	Y55	Z55	X56	Y56	Z56	X57	Y57	Z57	X58	Y58	Z58	X59	Y59	Z59

480	2.4	732.36	1577.6	-60.815	575.15	1403.9	-24.448	704.54	1331.2	-30.908	790.59	1109.6	-19.936	539.29	1299.8	78.871	735.32	926.49	122.2	658.46	1344.8	143.28	662.88	1136.4	213.14	656.71	1029.1	242.7	753.18	907.17	229.89	759.89	794.66	240.53	815.99	772.48	228.1	637.84	1335.3	-199.34	590.89	1129.9	-236.2	579.6	887.12	-254.39	580.02	767.68	-216.01	563.36	725.89	-256.76	637.7	721.79	164.83	629.21	535.31	133.41	696.95	634.48	115.02	605.28	438.65	120.25	682.3	734.74	-179.51	745.33	563.06	-140.96	779.06	672.42	-128.88	713.89	644.87	-160.33	769.69	457.17	-127.55	806.33	362.43	-46.379	799.72	174.87	-43.759	804.96	266.9	-48.834	912.54	37.68	-46.355	956.22	29.805	-72.398	551.37	1119.3	-11.354	632.65	627.79	147.18	778.58	74.044	-8.3043	781.42	268.66	-116.21	872.89	21.462	-124.01	738.56	1580.5	11.978	521.88	960.86	54.83	798.24	817.3	181.14	381.23	26.4	80.79	763.89	60.401	-88.486	551.87	1016.3	-242.53	524.67	960.57	-61.118	570.02	1531.1	47.641	549.43	323.46	58.565	564.91	1536.9	-79.739	524.7	776.96	-263.37	535.58	1007.6	-172.86	468.98	287.22	132.51	473.18	270.4	63.283	398.14	216.66	67.421	354.09	46.149	52.374	746.55	927.8	-134.31	315.28	175.01	44.199	291.38	177.61	121.15	314.55	48.15	129.45	240.31	193.95	76.676	714.97	27.982	-35.146	632.88	1002.6	163.18
481	2.405	738.24	1578.3	-61.522	580.88	1404.6	-25.321	710.26	1331.9	-31.584	796.17	1110.3	-20.533	544.94	1300.6	78.073	741.23	927.48	121.29	664.07	1345.6	142.5	667.55	1137.1	212.37	660.66	1029.8	241.73	756.34	907.18	229.68	762.04	794.64	240.66	817.94	771.84	228.47	643.89	1336.1	-200.1	597.71	1130.4	-237.06	587.07	887.64	-254.92	587.38	768.31	-216.43	571.16	726.38	-257.18	645.1	722.22	164.04	639.15	535.53	133.17	705.7	635.52	114.81	616.45	439.09	120.28	686.96	734.98	-180.28	749.17	563.06	-141.47	783.63	672.26	-130	718.13	645	-160.99	773.05	457.08	-127.98	809.09	362.11	-46.751	800.76	174.6	-43.89	806.84	266.59	-49.084	912.5	37.717	-46.312	956.41	29.751	-72.613	556.98	1120	-12.085	641.29	628.08	146.66	778.68	74.017	-8.2768	783.21	268.45	-116.46	872.87	21.528	-124.04	744.35	1581.2	11.279	527.36	961.36	54.113	800.83	816.76	181.33	384.57	26.981	81.172	763.95	60.413	-88.448	558.93	1016.8	-243.57	530.21	961.32	-61.807	575.75	1531.8	46.778	560.06	324.55	58.881	570.77	1537.7	-80.678	532.43	777.36	-264.15	542.19	1008.2	-173.89	479.24	289.43	133.05	483.14	272.41	63.854	407.48	219.54	68.198	358.92	48.096	53.107	752.22	928.46	-134.79	324.14	178.99	45.291	300.24	181.98	122.24	319.64	51.427	129.55	249.55	199.77	77.843	714.96	27.972	-35.135	637.39	1003.6	162.14
482	2.41	744.1	1579	-62.196	586.58	1405.3	-26.164	715.94	1332.6	-32.233	801.7	1111	-21.103	550.52	1301.4	77.275	747.08	928.52	120.49	669.62	1346.5	141.76	672.16	1137.8	211.63	664.58	1030.5	240.79	759.46	907.19	229.48	764.13	794.64	240.79	819.83	771.21	228.83	649.9	1336.9	-200.82	604.52	1131	-237.9	594.62	888.16	-255.44	594.82	768.93	-216.84	579.08	726.87	-257.61	652.47	722.74	163.29	649.05	535.87	132.93	714.43	636.65	114.65	627.63	439.64	120.32	691.54	735.21	-181.02	752.9	563.04	-141.98	788.1	672.07	-131.09	722.28	645.11	-161.63	776.27	456.96	-128.41	811.74	361.78	-47.136	801.76	174.33	-44.037	808.64	266.28	-49.349	912.45	37.771	-46.301	956.57	29.711	-72.858	562.56	1120.7	-12.811	649.9	628.49	146.17	778.77	73.999	-8.2623	784.92	268.23	-116.72	872.84	21.58	-124.08	750.14	1581.9	10.614	532.83	961.89	53.401	803.35	816.22	181.53	388.71	27.747	81.639	763.98	60.421	-88.423	566.04	1017.3	-244.58	535.71	962.08	-62.484	581.46	1532.6	45.954	570.77	325.75	59.129	576.61	1538.5	-81.588	540.27	777.74	-264.96	548.85	1008.8	-174.91	489.65	291.63	133.5	493.25	274.45	64.321	417.02	222.4	68.85	364.47	50.2	53.862	757.8	929.11	-135.29	333.24	182.87	46.226	309.36	186.22	123.18	325.38	54.812	129.68	258.99	205.27	78.848	714.96	27.963	-35.123	641.85	1004.6	161.13
483	2.415	749.95	1579.6	-62.835	592.24	1406	-26.978	721.57	1333.3	-32.855	807.18	1111.7	-21.647	556.05	1302.2	76.478	752.86	929.6	119.8	675.1	1347.3	141.06	676.73	1138.6	210.93	668.47	1031.3	239.89	762.52	907.2	229.3	766.18	794.64	240.93	821.67	770.59	229.19	655.86	1337.6	-201.52	611.33	1131.6	-238.73	602.23	888.68	-255.97	602.33	769.53	-217.24	587.12	727.35	-258.03	659.79	723.34	162.58	658.89	536.33	132.71	723.12	637.88	114.53	638.79	440.33	120.34	696.05	735.43	-181.74	756.52	562.99	-142.5	792.47	671.85	-132.14	726.33	645.21	-162.27	779.35	456.82	-128.84	814.28	361.44	-47.526	802.7	174.08	-44.196	810.37	265.97	-49.621	912.39	37.834	-46.318	956.7	29.678	-73.122	568.1	1121.5	-13.531	658.46	629.02	145.7	778.85	73.99	-8.2581	786.56	268	-117	872.81	21.619	-124.13	755.92	1582.5	9.9837	538.28	962.46	52.7	805.81	815.69	181.72	393.72	28.719	82.193	764	60.425	-88.411	573.18	1017.8	-245.58	541.18	962.84	-63.144	587.17	1533.4	45.172	581.54	327.04	59.31	582.43	1539.3	-82.467	548.22	778.11	-265.78	555.55	1009.3	-175.92	500.16	293.81	133.87	503.47	276.53	64.682	426.74	225.22	69.376	370.79	52.445	54.637	763.28	929.76	-135.81	342.58	186.63	46.996	318.7	190.31	123.98	331.78	58.259	129.83	268.61	210.41	79.677	714.95	27.956	-35.11	646.26	1005.6	160.16
